<svg xmlns="http://www.w3.org/2000/svg" viewBox="0 0 1200 660" role="img" aria-labelledby="title"><title id="title">Read, attempt, test and explain, record</title><rect width="1200" height="660" fill="#202c41"/><g stroke="#667895" stroke-width="1" opacity=".35"><path d="M0 110H1200M0 220H1200M0 330H1200M0 440H1200M0 550H1200M100 0V660M200 0V660M300 0V660M400 0V660M500 0V660M600 0V660M700 0V660M800 0V660M900 0V660M1000 0V660M1100 0V660"/></g><g font-family="sans-serif" fill="#faf5e9"><text x="70" y="90" font-size="27" letter-spacing="5">DESIGNED FOR PRACTICE</text></g><g fill="none" stroke="#b3c5dd" stroke-width="4"><path d="M180 330H1020"/><path d="m990 310 30 20-30 20"/></g><g font-family="sans-serif" text-anchor="middle"><g fill="#e5bb55"><circle cx="190" cy="330" r="52"/><circle cx="455" cy="330" r="52"/><circle cx="720" cy="330" r="52"/><circle cx="985" cy="330" r="52"/></g><g fill="#202c41" font-size="40"><text x="190" y="344">1</text><text x="455" y="344">2</text><text x="720" y="344">3</text><text x="985" y="344">4</text></g><g fill="#faf5e9" font-size="29"><text x="190" y="238">Read</text><text x="455" y="238">Attempt</text><text x="720" y="238">Test + explain</text><text x="985" y="238">Record</text></g></g><rect x="315" y="431" width="650" height="117" rx="7" fill="#faf5e9"/><g fill="#202c41" font-family="sans-serif" font-size="26"><text x="345" y="476">Tutoring follows a written attempt</text><text x="345" y="516">and at least 45 minutes of independent effort.</text></g><path d="M455 389V425" stroke="#e5bb55" stroke-width="4"/></svg>